<svg width="24" height="24" viewBox="0 0 24 24" fill="none" xmlns="http://www.w3.org/2000/svg">
<path d="M20 12.5V6.8C20 5.11984 20 5.27976 19.673 4.63803C19.3854 4.07354 18.9265 3.6146 18.362 3.32698C17.7202 3 16.8802 3 15.2 3H8.8C7.11984 3 6.27976 3 5.63803 3.32698C5.07354 3.6146 4.6146 4.07354 4.32698 4.63803C4 5.27976 4 5.11984 4 6.8V16.2C4 17.8802 4 18.7202 4.32698 19.362C4.6146 19.9265 5.07354 20.3854 5.63803 20.673C6.27976 21 7.1198 21 8.79986 21H12.5M14 11H8M10 15H8M16 7H8" stroke="#5F6D7E" stroke-width="1.67" stroke-linecap="round" stroke-linejoin="round"/>
<path d="M17 21L20 18M20 18L17 15M20 18H14" stroke="#56646F" stroke-width="1.5" stroke-linecap="round" stroke-linejoin="round"/>
</svg>
