<svg width="24" height="24" viewBox="0 0 24 24" fill="none" xmlns="http://www.w3.org/2000/svg">
<path d="M18.4871 1C22.7637 5.27663 22.7637 12.2104 18.4871 16.4871C14.2104 20.7637 7.27663 20.7637 3 16.4871M17.0836 22H5.55621M11.3199 22V19.6945" stroke="#148A3B" stroke-width="1.67" stroke-linecap="round" stroke-linejoin="round"/>
<path d="M10.4928 15.9856C14.6309 15.9856 17.9856 12.6309 17.9856 8.49279C17.9856 4.35464 14.6309 1 10.4928 1C6.35464 1 3 4.35464 3 8.49279C3 12.6309 6.35464 15.9856 10.4928 15.9856Z" stroke="#148A3B" stroke-width="1.5" stroke-linecap="round" stroke-linejoin="round"/>
<path d="M3 8.63635H17.9856" stroke="#148A3B" stroke-width="1.5" stroke-linecap="round" stroke-linejoin="round"/>
<path d="M10.4928 1C12.2948 3.05179 13.319 5.71449 13.3746 8.49279C13.319 11.2711 12.2948 13.9338 10.4928 15.9856C8.6907 13.9338 7.66659 11.2711 7.61094 8.49279C7.66659 5.71449 8.6907 3.05179 10.4928 1Z" stroke="#148A3B" stroke-width="1.5" stroke-linecap="round" stroke-linejoin="round"/>
</svg>
