<svg width="412" height="239" viewBox="0 0 412 239" fill="none" xmlns="http://www.w3.org/2000/svg">
<path d="M402.25 44.57H26.74C21.5154 44.57 17.28 48.8054 17.28 54.03V198.83C17.28 204.055 21.5154 208.29 26.74 208.29H402.25C407.475 208.29 411.71 204.055 411.71 198.83V54.03C411.71 48.8054 407.475 44.57 402.25 44.57Z" fill="#F3F5F6"/>
<path d="M356.19 0H72.39C64.6801 0 58.43 6.2501 58.43 13.96V224.59C58.43 232.3 64.6801 238.55 72.39 238.55H356.19C363.9 238.55 370.15 232.3 370.15 224.59V13.96C370.15 6.2501 363.9 0 356.19 0Z" fill="#F1F3F5"/>
<path d="M354.5 5.08002H74.08C68.4743 5.08002 63.93 9.62433 63.93 15.23V223.33C63.93 228.936 68.4743 233.48 74.08 233.48H354.5C360.106 233.48 364.65 228.936 364.65 223.33V15.23C364.65 9.62433 360.106 5.08002 354.5 5.08002Z" fill="white"/>
<path d="M331.24 18.46C332.737 18.46 333.95 17.2467 333.95 15.75C333.95 14.2533 332.737 13.04 331.24 13.04C329.743 13.04 328.53 14.2533 328.53 15.75C328.53 17.2467 329.743 18.46 331.24 18.46Z" fill="#5273FD"/>
<path d="M321.08 18.46C322.577 18.46 323.79 17.2467 323.79 15.75C323.79 14.2533 322.577 13.04 321.08 13.04C319.583 13.04 318.37 14.2533 318.37 15.75C318.37 17.2467 319.583 18.46 321.08 18.46Z" fill="#FF340C"/>
<path d="M351.56 18.46C353.057 18.46 354.27 17.2467 354.27 15.75C354.27 14.2533 353.057 13.04 351.56 13.04C350.063 13.04 348.85 14.2533 348.85 15.75C348.85 17.2467 350.063 18.46 351.56 18.46Z" fill="#19AD4A"/>
<path d="M341.4 18.46C342.897 18.46 344.11 17.2467 344.11 15.75C344.11 14.2533 342.897 13.04 341.4 13.04C339.903 13.04 338.69 14.2533 338.69 15.75C338.69 17.2467 339.903 18.46 341.4 18.46Z" fill="#FFCD00"/>
<path d="M86.67 44.74H341.92" stroke="#293B4A" stroke-width="1.36" stroke-miterlimit="10"/>
<path d="M159.87 73.21H327.75" stroke="#E7E7E7" stroke-width="3.52" stroke-miterlimit="10"/>
<path d="M159.87 80.04H327.75" stroke="#E7E7E7" stroke-width="3.52" stroke-miterlimit="10"/>
<path d="M159.87 86.88H316.68" stroke="#E7E7E7" stroke-width="3.52" stroke-miterlimit="10"/>
<path d="M105.47 60.94H138.57C141.13 60.94 143.2 63.01 143.2 65.57V87.26V87.39V99.15L139.17 92.02L139.21 91.97C139 92 138.78 92.02 138.57 92.02H105.47C102.91 92.02 100.84 89.95 100.84 87.39V65.58C100.84 63.02 102.91 60.95 105.47 60.95V60.94Z" fill="#F2F5F7" stroke="#293B4A" stroke-width="0.49" stroke-miterlimit="10"/>
<path d="M106.87 68.07H136.36" stroke="#293B4A" stroke-width="0.66" stroke-miterlimit="10"/>
<path d="M106.87 73.22H136.36" stroke="#293B4A" stroke-width="0.66" stroke-miterlimit="10"/>
<path d="M106.87 78.11H136.36" stroke="#293B4A" stroke-width="0.66" stroke-miterlimit="10"/>
<path d="M106.87 83.56H124.12" stroke="#293B4A" stroke-width="0.66" stroke-miterlimit="10"/>
<path d="M159.87 127.61H327.75" stroke="#E7E7E7" stroke-width="3.52" stroke-miterlimit="10"/>
<path d="M159.87 134.44H327.75" stroke="#E7E7E7" stroke-width="3.52" stroke-miterlimit="10"/>
<path d="M159.87 141.27H316.68" stroke="#E7E7E7" stroke-width="3.52" stroke-miterlimit="10"/>
<path d="M105.47 115.34H138.57C141.13 115.34 143.2 117.41 143.2 119.97V141.66V141.79V153.55L139.17 146.42L139.21 146.37C139 146.4 138.78 146.42 138.57 146.42H105.47C102.91 146.42 100.84 144.35 100.84 141.79V119.98C100.84 117.42 102.91 115.35 105.47 115.35V115.34Z" fill="#F2F5F7" stroke="#293B4A" stroke-width="0.49" stroke-miterlimit="10"/>
<path d="M106.87 122.47H136.36" stroke="#293B4A" stroke-width="0.66" stroke-miterlimit="10"/>
<path d="M106.87 127.62H136.36" stroke="#293B4A" stroke-width="0.66" stroke-miterlimit="10"/>
<path d="M106.87 132.51H136.36" stroke="#293B4A" stroke-width="0.66" stroke-miterlimit="10"/>
<path d="M106.87 137.96H124.12" stroke="#293B4A" stroke-width="0.66" stroke-miterlimit="10"/>
<path d="M159.87 182.01H327.75" stroke="#E7E7E7" stroke-width="3.52" stroke-miterlimit="10"/>
<path d="M159.87 188.84H327.75" stroke="#E7E7E7" stroke-width="3.52" stroke-miterlimit="10"/>
<path d="M159.87 195.67H316.68" stroke="#E7E7E7" stroke-width="3.52" stroke-miterlimit="10"/>
<path d="M105.47 169.74H138.57C141.13 169.74 143.2 171.81 143.2 174.37V196.06V196.19V207.95L139.17 200.82L139.21 200.77C139 200.8 138.78 200.82 138.57 200.82H105.47C102.91 200.82 100.84 198.75 100.84 196.19V174.38C100.84 171.82 102.91 169.75 105.47 169.75V169.74Z" fill="#F2F5F7" stroke="#293B4A" stroke-width="0.49" stroke-miterlimit="10"/>
<path d="M106.87 176.87H136.36" stroke="#293B4A" stroke-width="0.66" stroke-miterlimit="10"/>
<path d="M106.87 182.02H136.36" stroke="#293B4A" stroke-width="0.66" stroke-miterlimit="10"/>
<path d="M106.87 186.91H136.36" stroke="#293B4A" stroke-width="0.66" stroke-miterlimit="10"/>
<path d="M106.87 192.36H124.12" stroke="#293B4A" stroke-width="0.66" stroke-miterlimit="10"/>
<path d="M74.56 126.43H12.06C5.39945 126.43 0 131.829 0 138.49V200.99C0 207.651 5.39945 213.05 12.06 213.05H74.56C81.2206 213.05 86.62 207.651 86.62 200.99V138.49C86.62 131.829 81.2206 126.43 74.56 126.43Z" fill="#FF340C"/>
<path d="M367.38 55.99H275.6C258.214 55.99 244.12 70.0841 244.12 87.47V87.48C244.12 104.866 258.214 118.96 275.6 118.96H367.38C384.766 118.96 398.86 104.866 398.86 87.48V87.47C398.86 70.0841 384.766 55.99 367.38 55.99Z" fill="#5273FD"/>
<path d="M277.48 111.47C290.729 111.47 301.47 100.729 301.47 87.48C301.47 74.2307 290.729 63.49 277.48 63.49C264.231 63.49 253.49 74.2307 253.49 87.48C253.49 100.729 264.231 111.47 277.48 111.47Z" fill="#F3F5F6"/>
<path d="M289.89 74.32H269.76C268.47 74.32 267.43 75.36 267.43 76.65V94.22" stroke="#293B4A" stroke-width="0.68" stroke-miterlimit="10"/>
<path d="M287.54 98.3L287.56 76.65C287.56 75.36 288.6 74.32 289.89 74.32C291.18 74.32 292.22 75.36 292.22 76.65V79.07H289.27" stroke="#293B4A" stroke-width="0.68" stroke-miterlimit="10"/>
<path d="M287.54 100.64H285.21M285.21 100.64H265.08C263.79 100.64 262.75 99.6 262.75 98.31V95.98H282.88V98.31C282.88 99.6 283.92 100.64 285.21 100.64Z" stroke="#293B4A" stroke-width="0.68" stroke-miterlimit="10"/>
<path d="M270.85 78.54H277.12" stroke="#293B4A" stroke-width="0.68" stroke-miterlimit="10"/>
<path d="M270.85 92.33H274.66" stroke="#293B4A" stroke-width="0.68" stroke-miterlimit="10"/>
<path d="M279.35 82.54H283.81" stroke="#293B4A" stroke-width="0.68" stroke-miterlimit="10"/>
<path d="M270.85 82.54H277.48" stroke="#293B4A" stroke-width="0.68" stroke-miterlimit="10"/>
<path d="M270.85 84.77H283.81" stroke="#293B4A" stroke-width="0.68" stroke-miterlimit="10"/>
<path d="M275.76 87.01H283.81" stroke="#293B4A" stroke-width="0.68" stroke-miterlimit="10"/>
<path d="M270.85 87.01H273.99" stroke="#293B4A" stroke-width="0.68" stroke-miterlimit="10"/>
<path d="M270.85 89.24H283.81" stroke="#293B4A" stroke-width="0.68" stroke-miterlimit="10"/>
<path d="M314.166 93.84V85.44H315.702L319.65 91.356V85.44H321.186V93.84H319.65L315.702 87.936V93.84H314.166ZM325.67 93.984C325.07 93.984 324.538 93.856 324.074 93.6C323.61 93.344 323.246 92.984 322.982 92.52C322.718 92.056 322.586 91.52 322.586 90.912C322.586 90.296 322.714 89.748 322.97 89.268C323.234 88.788 323.594 88.416 324.05 88.152C324.514 87.88 325.058 87.744 325.682 87.744C326.266 87.744 326.782 87.872 327.23 88.128C327.678 88.384 328.026 88.736 328.274 89.184C328.53 89.624 328.658 90.116 328.658 90.66C328.658 90.748 328.654 90.84 328.646 90.936C328.646 91.032 328.642 91.132 328.634 91.236H324.11C324.142 91.7 324.302 92.064 324.59 92.328C324.886 92.592 325.242 92.724 325.658 92.724C325.97 92.724 326.23 92.656 326.438 92.52C326.654 92.376 326.814 92.192 326.918 91.968H328.478C328.366 92.344 328.178 92.688 327.914 93C327.658 93.304 327.338 93.544 326.954 93.72C326.578 93.896 326.15 93.984 325.67 93.984ZM325.682 88.992C325.306 88.992 324.974 89.1 324.686 89.316C324.398 89.524 324.214 89.844 324.134 90.276H327.098C327.074 89.884 326.93 89.572 326.666 89.34C326.402 89.108 326.074 88.992 325.682 88.992ZM330.88 93.84L329.14 87.888H330.664L331.696 92.172L332.896 87.888H334.6L335.8 92.172L336.844 87.888H338.368L336.616 93.84H335.02L333.748 89.388L332.476 93.84H330.88ZM341.797 93.984C341.269 93.984 340.805 93.9 340.405 93.732C340.005 93.556 339.685 93.316 339.445 93.012C339.205 92.708 339.061 92.356 339.013 91.956H340.561C340.609 92.188 340.737 92.388 340.945 92.556C341.161 92.716 341.437 92.796 341.773 92.796C342.109 92.796 342.353 92.728 342.505 92.592C342.665 92.456 342.745 92.3 342.745 92.124C342.745 91.868 342.633 91.696 342.409 91.608C342.185 91.512 341.873 91.42 341.473 91.332C341.217 91.276 340.957 91.208 340.693 91.128C340.429 91.048 340.185 90.948 339.961 90.828C339.745 90.7 339.569 90.54 339.433 90.348C339.297 90.148 339.229 89.904 339.229 89.616C339.229 89.088 339.437 88.644 339.853 88.284C340.277 87.924 340.869 87.744 341.629 87.744C342.333 87.744 342.893 87.908 343.309 88.236C343.733 88.564 343.985 89.016 344.065 89.592H342.613C342.525 89.152 342.193 88.932 341.617 88.932C341.329 88.932 341.105 88.988 340.945 89.1C340.793 89.212 340.717 89.352 340.717 89.52C340.717 89.696 340.833 89.836 341.065 89.94C341.297 90.044 341.605 90.14 341.989 90.228C342.405 90.324 342.785 90.432 343.129 90.552C343.481 90.664 343.761 90.836 343.969 91.068C344.177 91.292 344.281 91.616 344.281 92.04C344.289 92.408 344.193 92.74 343.993 93.036C343.793 93.332 343.505 93.564 343.129 93.732C342.753 93.9 342.309 93.984 341.797 93.984Z" fill="white"/>
<path d="M68.35 187.3H71.89V185.02L70.17 183.58V179.42C70.17 166.94 53.19 165.52 53.19 179.27V183.43L51.46 184.73V187.2H56.57L64.31 187.25C64.34 187.61 64.3 187.97 64.19 188.32C64.08 188.66 63.89 188.98 63.65 189.25C63.4 189.52 63.1 189.73 62.78 189.88C62.45 190.03 62.08 190.1 61.72 190.1C61.36 190.1 61 190.02 60.67 189.88C60.34 189.73 60.05 189.52 59.8 189.25C59.56 188.98 59.37 188.67 59.26 188.32C59.14 187.98 59.09 187.61 59.12 187.25" stroke="white" stroke-width="1.01" stroke-miterlimit="10"/>
<path d="M61.69 166.79V169.48" stroke="white" stroke-width="1.01" stroke-miterlimit="10"/>
<path d="M14.73 160.44V179.41H50" stroke="white" stroke-width="1.01" stroke-miterlimit="10"/>
<path d="M61.69 155.92L38.21 169.46L14.73 155.92V149.39H61.68V155.92H61.69Z" stroke="white" stroke-width="1.01" stroke-miterlimit="10"/>
</svg>
