<svg width="228" height="200" viewBox="0 0 228 200" fill="none" xmlns="http://www.w3.org/2000/svg">
<g clip-path="url(#clip0_1661_18436)">
<path d="M5.95999 46.06H222.04C225.08 46.06 227.57 48.55 227.57 51.59V166.03C227.57 169.07 225.08 171.56 222.04 171.56H5.95999C2.91999 171.56 0.429993 169.07 0.429993 166.03V51.59C0.429993 48.55 2.91999 46.06 5.95999 46.06Z" fill="#F3F5F6"/>
<path d="M117.21 200C111.65 200 107.13 198.3 103.66 194.9C100.19 191.5 98.45 187.41 98.45 182.62C98.45 177.68 100.19 173.51 103.66 170.11C107.13 166.72 111.65 165.01 117.21 165.01C122.46 165.01 126.82 166.71 130.3 170.11C133.77 173.51 135.51 177.68 135.51 182.62C135.51 187.41 133.77 191.5 130.3 194.9C126.82 198.3 122.46 200 117.21 200ZM104.01 147.18L100.77 36.22H132.51L129.04 147.18H104.01Z" fill="#FFCB00"/>
<path d="M124.04 111.43L123.07 142.34H98.05L94.81 31.38H126.55L124.52 96.24M124.34 190.06C120.87 193.46 116.5 195.16 111.25 195.16C105.69 195.16 101.17 193.46 97.7 190.06C94.23 186.66 92.49 182.57 92.49 177.78C92.49 172.84 94.23 168.67 97.7 165.27C99.15 163.85 100.78 162.73 102.6 161.9C105.13 160.75 108.02 160.17 111.25 160.17C116.5 160.17 120.86 161.87 124.34 165.27C127.81 168.67 129.55 172.84 129.55 177.78L124.34 190.06Z" stroke="#293B4A" stroke-width="0.9214" stroke-miterlimit="10" stroke-linecap="round" stroke-linejoin="round"/>
<path d="M208.37 123.34H163.88C162.52 123.34 161.42 122.24 161.42 120.88V64.8C161.42 63.44 162.52 62.34 163.88 62.34H208.37C209.73 62.34 210.83 63.44 210.83 64.8V120.88C210.84 122.24 209.73 123.34 208.37 123.34Z" fill="white" stroke="#293B4A" stroke-width="0.3455" stroke-miterlimit="10"/>
<path d="M200.49 77.11H171.76C171.35 77.11 171.01 76.77 171.01 76.36C171.01 75.95 171.35 75.61 171.76 75.61H200.49C200.9 75.61 201.24 75.95 201.24 76.36C201.24 76.78 200.9 77.11 200.49 77.11Z" fill="#19AD4A"/>
<path d="M191.34 80.51H171.76C171.35 80.51 171.01 80.17 171.01 79.76C171.01 79.35 171.35 79.01 171.76 79.01H191.34C191.75 79.01 192.09 79.35 192.09 79.76C192.09 80.17 191.75 80.51 191.34 80.51Z" fill="#19AD4A"/>
<path d="M197.07 83.91H171.76C171.35 83.91 171.01 83.57 171.01 83.16C171.01 82.75 171.35 82.41 171.76 82.41H197.07C197.48 82.41 197.82 82.75 197.82 83.16C197.82 83.57 197.49 83.91 197.07 83.91Z" fill="#19AD4A"/>
<path d="M200.49 90.19H171.76C171.35 90.19 171.01 89.85 171.01 89.44C171.01 89.03 171.35 88.69 171.76 88.69H200.49C200.9 88.69 201.24 89.03 201.24 89.44C201.24 89.85 200.9 90.19 200.49 90.19Z" fill="#19AD4A"/>
<path d="M191.34 93.59H171.76C171.35 93.59 171.01 93.25 171.01 92.84C171.01 92.43 171.35 92.09 171.76 92.09H191.34C191.75 92.09 192.09 92.43 192.09 92.84C192.09 93.25 191.75 93.59 191.34 93.59Z" fill="#19AD4A"/>
<path d="M197.07 96.99H171.76C171.35 96.99 171.01 96.65 171.01 96.24C171.01 95.83 171.35 95.49 171.76 95.49H197.07C197.48 95.49 197.82 95.83 197.82 96.24C197.82 96.65 197.49 96.99 197.07 96.99Z" fill="#19AD4A"/>
<path d="M61.96 179.14H17.46C16.1 179.14 15 178.04 15 176.68V120.6C15 119.24 16.1 118.14 17.46 118.14H61.95C63.31 118.14 64.41 119.24 64.41 120.6V176.68C64.42 178.03 63.32 179.14 61.96 179.14Z" fill="white" stroke="#293B4A" stroke-width="0.3455" stroke-miterlimit="10"/>
<path d="M54.07 132.91H25.35C24.94 132.91 24.6 132.57 24.6 132.16C24.6 131.75 24.94 131.41 25.35 131.41H54.08C54.49 131.41 54.83 131.75 54.83 132.16C54.83 132.57 54.49 132.91 54.07 132.91Z" fill="#19AD4A"/>
<path d="M44.92 136.31H25.35C24.94 136.31 24.6 135.97 24.6 135.56C24.6 135.15 24.94 134.81 25.35 134.81H44.93C45.34 134.81 45.68 135.15 45.68 135.56C45.67 135.97 45.33 136.31 44.92 136.31Z" fill="#19AD4A"/>
<path d="M50.65 139.71H25.35C24.94 139.71 24.6 139.37 24.6 138.96C24.6 138.55 24.94 138.21 25.35 138.21H50.66C51.07 138.21 51.41 138.55 51.41 138.96C51.41 139.37 51.07 139.71 50.65 139.71Z" fill="#19AD4A"/>
<path d="M54.07 145.99H25.35C24.94 145.99 24.6 145.65 24.6 145.24C24.6 144.83 24.94 144.49 25.35 144.49H54.08C54.49 144.49 54.83 144.83 54.83 145.24C54.83 145.65 54.49 145.99 54.07 145.99Z" fill="#19AD4A"/>
<path d="M44.92 149.38H25.35C24.94 149.38 24.6 149.04 24.6 148.63C24.6 148.22 24.94 147.88 25.35 147.88H44.93C45.34 147.88 45.68 148.22 45.68 148.63C45.67 149.05 45.33 149.38 44.92 149.38Z" fill="#19AD4A"/>
<path d="M50.65 152.78H25.35C24.94 152.78 24.6 152.44 24.6 152.03C24.6 151.62 24.94 151.28 25.35 151.28H50.66C51.07 151.28 51.41 151.62 51.41 152.03C51.41 152.45 51.07 152.78 50.65 152.78Z" fill="#19AD4A"/>
<path d="M171.3 31.75L179.05 18.32" stroke="#FFCB00" stroke-width="0.7576" stroke-miterlimit="10"/>
<path d="M142.06 19.63L146.07 4.66" stroke="#FFCB00" stroke-width="0.7576" stroke-miterlimit="10"/>
<path d="M110.67 15.5V0" stroke="#FFCB00" stroke-width="0.7576" stroke-miterlimit="10"/>
<path d="M79.29 19.63L75.28 4.66" stroke="#FFCB00" stroke-width="0.7576" stroke-miterlimit="10"/>
<path d="M50.05 31.75L42.3 18.32" stroke="#FFCB00" stroke-width="0.7576" stroke-miterlimit="10"/>
</g>
<defs>
<clipPath id="clip0_1661_18436">
<rect width="227.14" height="200" fill="white" transform="translate(0.429993)"/>
</clipPath>
</defs>
</svg>
