<svg width="448" height="249" viewBox="0 0 448 249" fill="none" xmlns="http://www.w3.org/2000/svg">
<path d="M409.02 64.61H33.51C28.2854 64.61 24.05 68.8454 24.05 74.07V218.87C24.05 224.095 28.2854 228.33 33.51 228.33H409.02C414.245 228.33 418.48 224.095 418.48 218.87V74.07C418.48 68.8454 414.245 64.61 409.02 64.61Z" fill="#F3F5F6"/>
<path d="M385.07 247.43L252.92 247.76L252.44 54.45L384.59 54.12L385.07 247.43Z" fill="white" stroke="#293B4A" stroke-miterlimit="10"/>
<path d="M290.04 177.1C301.66 177.1 311.08 167.68 311.08 156.06C311.08 144.44 301.66 135.02 290.04 135.02C278.42 135.02 269 144.44 269 156.06C269 167.68 278.42 177.1 290.04 177.1Z" fill="#5CC46E"/>
<path d="M290.04 234.42C301.66 234.42 311.08 225 311.08 213.38C311.08 201.76 301.66 192.34 290.04 192.34C278.42 192.34 269 201.76 269 213.38C269 225 278.42 234.42 290.04 234.42Z" fill="#5CC46E"/>
<path d="M310.36 205.92C311.35 208.68 311.79 211.69 311.56 214.8C310.67 226.68 300.32 235.59 288.44 234.71C276.56 233.82 267.65 223.47 268.53 211.59C269.42 199.71 279.77 190.8 291.65 191.68C296.85 192.07 301.48 194.27 304.97 197.61" stroke="#293B4A" stroke-miterlimit="10"/>
<path d="M276.89 207.28L289.71 220.03L316.89 192.7" stroke="#293B4A" stroke-miterlimit="10"/>
<path d="M310.36 148.78C311.35 151.54 311.79 154.55 311.56 157.66C310.67 169.54 300.32 178.45 288.44 177.57C276.56 176.68 267.65 166.33 268.53 154.45C269.42 142.57 279.77 133.66 291.65 134.54C296.85 134.93 301.48 137.13 304.97 140.47" stroke="#293B4A" stroke-miterlimit="10"/>
<path d="M276.89 150.13L289.71 162.88L316.89 135.56" stroke="#293B4A" stroke-miterlimit="10"/>
<path d="M310.36 91.63C311.35 94.39 311.79 97.4 311.56 100.51C310.67 112.39 300.32 121.3 288.44 120.42C276.56 119.53 267.65 109.18 268.53 97.3C269.42 85.42 279.77 76.51 291.65 77.39C296.85 77.78 301.48 79.98 304.97 83.32" fill="#FFE570"/>
<path d="M310.36 91.63C311.35 94.39 311.79 97.4 311.56 100.51C310.67 112.39 300.32 121.3 288.44 120.42C276.56 119.53 267.65 109.18 268.53 97.3C269.42 85.42 279.77 76.51 291.65 77.39C296.85 77.78 301.48 79.98 304.97 83.32" stroke="#293B4A" stroke-miterlimit="10"/>
<path d="M370.54 105.74H332.16" stroke="#293B4A" stroke-miterlimit="10"/>
<path d="M370.54 97.93H332.16" stroke="#293B4A" stroke-miterlimit="10"/>
<path d="M370.54 89.76H332.16" stroke="#293B4A" stroke-miterlimit="10"/>
<path d="M370.54 162.45H332.16" stroke="#293B4A" stroke-miterlimit="10"/>
<path d="M370.54 154.64H332.16" stroke="#293B4A" stroke-miterlimit="10"/>
<path d="M370.54 146.47H332.16" stroke="#293B4A" stroke-miterlimit="10"/>
<path d="M370.54 221.19H332.16" stroke="#293B4A" stroke-miterlimit="10"/>
<path d="M370.54 213.38H332.16" stroke="#293B4A" stroke-miterlimit="10"/>
<path d="M370.54 205.21H332.16" stroke="#293B4A" stroke-miterlimit="10"/>
<path d="M377.15 195.27L410.34 205.21L409.24 208.8C409.24 208.8 408.8 210.02 406.82 211.8L383.93 232.3L376.03 200.93C376.03 200.93 375.57 200.4 376.03 198.86L377.13 195.27H377.15Z" fill="white"/>
<path d="M408.03 94.32L441.18 104.4L408.89 209.94C408.89 209.94 405.05 200.69 391.91 206.22C391.91 206.22 386.32 196.17 375.76 199.8L408.03 94.31V94.32Z" fill="#BCD5FD"/>
<path d="M440.72 105.93L408.9 209.94L383.94 232.3L375.76 199.81L407.58 95.79" stroke="#293B4A" stroke-miterlimit="10"/>
<path d="M380.48 218.55L394.5 222.84L383.94 232.3L380.48 218.55Z" fill="#293B4A"/>
<path d="M408.9 209.94C402.72 200.55 391.92 206.22 391.92 206.22C391.92 206.22 386.87 196.14 375.77 199.8" stroke="#293B4A" stroke-miterlimit="10"/>
<path d="M391.92 206.23L424.15 100.86" stroke="#293B4A" stroke-miterlimit="10"/>
<path d="M442.855 98.9289L409.721 88.7924L407.579 95.7922L440.713 105.929L442.855 98.9289Z" fill="#FFCD00" stroke="#293B4A" stroke-miterlimit="10"/>
<path d="M421.958 82.2956L436.349 86.6983C441.523 88.281 444.436 93.7632 442.854 98.9365L409.72 88.8001C411.302 83.6267 416.784 80.713 421.958 82.2956Z" fill="#293B4A" stroke="#293B4A" stroke-miterlimit="10"/>
<path d="M142.65 238.61V232.05L144.17 231.21C144.17 231.21 143.38 225.94 149.81 219.81C156.24 213.68 165.57 207.92 167.27 207.85C168.97 207.78 174.95 207.85 174.95 207.85C174.95 207.85 177.02 207.96 178.49 210.07C179.96 212.18 180.18 214.77 180.18 214.77H194.03V222.82H189.55V238.62H142.66L142.65 238.61Z" fill="white"/>
<path d="M96.95 180.58C100.52 178.12 98.54 174.87 98.54 174.87L93.31 170.67L91.64 171.07L89.42 176.54C89.42 176.54 90.29 180.19 94.65 181.06L91.64 222.69L93.07 224.75L100.84 228.32L104.17 225.7L105.36 215.55L105.04 195.65L96.95 180.58Z" fill="#BCD5FD"/>
<path d="M111.69 230.1C114.17 210.8 112.82 200.31 112.82 200.31C112.82 200.31 121.34 199.46 124.99 193.33C124.99 193.33 114.17 167.25 99.69 165.81C99.69 165.81 97.7 161.69 91.89 160.61C91.89 160.61 92.53 163.53 93.35 164.2C94.17 164.87 99.46 169.48 93.83 171.76L98.27 175.68C98.27 175.68 98.27 179.9 95.74 180.3C95.74 180.3 106.3 196.87 103.1 224.66L100.2 227.96L104.18 230.41L111.69 230.11V230.1Z" fill="#19AD4A"/>
<path d="M49.3 193.47C64.5 202.43 71.22 199.48 71.22 199.48C71.22 199.48 68.03 214.67 66.97 216.32C66.97 216.32 88.62 221.58 93.78 225.18L92.69 221.25C92.69 221.25 94.63 215.85 95.75 180.3C95.75 180.3 91.77 179.78 90.66 177.13C90.66 177.13 91.78 172.8 93.24 171.97C93.24 171.97 87.73 173.37 77.47 164.64L79.84 160.8C79.84 160.8 73.07 159.96 70.14 166.8C60.8 170.86 54.11 180.29 49.3 193.47Z" fill="#19AD4A"/>
<path d="M122.01 196.3C124.84 201.25 124.96 207.02 124.96 207.02C124.96 207.02 140.4 216.45 146.06 224.11C146.06 224.11 143.7 228.59 144.17 231.18L142.99 232.12L143.11 235.07C143.11 235.07 116.12 228.59 112.47 215.15L112.82 200.3C116.6 199.88 119.79 198.7 122.01 196.29V196.3Z" fill="#FFDCC2"/>
<path d="M71.22 199.48C69.22 211.74 66.98 216.1 66.98 216.1C66.98 216.1 90.9 222.35 104.57 230.48C122.48 228.71 124.02 238.61 124.02 238.61H100.92C60.97 234.96 53.54 228.95 53.54 228.95C53.54 228.95 47.06 215.16 52.24 195.01C58.58 198.62 64.91 200.6 71.21 199.49L71.22 199.48Z" fill="#FFDCC2"/>
<path d="M76.98 164.32C92.01 176.97 96.2 170.69 96.29 169.08C96.47 166.31 93.35 164.21 93.35 164.21C93.35 164.21 91.37 161.97 91.99 156.57C91.99 156.57 95.24 156.31 96.47 155.3C96.47 155.3 95.24 148.1 95.59 146.34L96.38 146.16L94.93 141.86C94.93 141.86 95.72 136.94 95.28 133.87C94.84 130.8 88.91 128.47 88.91 128.47H84.56L77.14 131.28L74.24 138.75L77.67 150.08C77.67 150.08 78.68 151.71 79.16 153.86C79.64 156.01 80.3 158.78 79.29 161.85C78.28 164.92 76.97 164.34 76.97 164.34L76.98 164.32Z" fill="#FFDCC2"/>
<path d="M40.6 245.82H116.72" stroke="#293B4A" stroke-miterlimit="10"/>
<path d="M126.91 245.82H245.27" stroke="#293B4A" stroke-miterlimit="10"/>
<path d="M90.25 188.14H78.48V192.69H90.25V188.14Z" fill="#FFCD00" stroke="#293B4A" stroke-miterlimit="10"/>
<path d="M80.21 190.41H88.56" stroke="#293B4A" stroke-miterlimit="10"/>
<path d="M52.21 195C52.21 195 46.6 213.82 53.42 228.72C54.94 232.27 84.73 238.14 104.87 238.55" stroke="#293B4A" stroke-miterlimit="10"/>
<path d="M72.42 190.41C70.72 206.61 67.13 216.04 67.13 216.04" stroke="#293B4A" stroke-miterlimit="10"/>
<path d="M111.64 188.41C113.7 203.16 112.19 224.55 112.19 224.55" stroke="#293B4A" stroke-miterlimit="10"/>
<path d="M157.38 144.1V194.51L237.25 198.37V130.06L157.38 144.1Z" fill="white" stroke="#293B4A" stroke-miterlimit="10"/>
<path d="M241.65 131.03V191.02" stroke="#293B4A" stroke-miterlimit="10"/>
<path d="M193.17 203.16L191.2 196.15" stroke="#293B4A" stroke-miterlimit="10"/>
<path d="M203.3 196.73L216.3 207.76" stroke="#293B4A" stroke-miterlimit="10"/>
<path d="M225.64 207.76H185.7V213.17" stroke="#293B4A" stroke-miterlimit="10"/>
<path d="M157.38 158.13H103.74" stroke="#293B4A" stroke-miterlimit="10"/>
<path d="M48.24 238.55H247.99" stroke="#293B4A" stroke-linejoin="round"/>
<path d="M189.6 222.77V238.55" stroke="#293B4A" stroke-miterlimit="10"/>
<path d="M172.21 223.97V238.55" stroke="#293B4A" stroke-miterlimit="10"/>
<path d="M194.07 214.88H168.59V222.77H194.07V214.88Z" stroke="#293B4A" stroke-miterlimit="10"/>
<path d="M168.59 214.88L142.93 232.1V238.55" stroke="#293B4A" stroke-miterlimit="10"/>
<path d="M168.59 210.46C171.53 211.7 170.8 214.88 170.8 214.88" stroke="#293B4A" stroke-miterlimit="10"/>
<path d="M180.11 214.88C180.11 214.88 180.73 211.36 177 208.46C176.41 208 175.68 207.76 174.93 207.76H167.5C166.95 207.76 166.41 207.9 165.92 208.16C161.88 210.31 143.16 220.87 144.18 231.27" stroke="#293B4A" stroke-miterlimit="10"/>
<path d="M112.72 215.64C116.94 228.05 138.96 233.92 138.96 233.92" stroke="#293B4A" stroke-miterlimit="10"/>
<path d="M144.98 222.93C134.53 212.13 125.05 207.36 125.05 207.36C124.57 203.95 123.57 200.29 122.17 196.62" stroke="#293B4A" stroke-miterlimit="10"/>
<path d="M127.66 168.57L144.55 168.48C144.55 168.48 142.01 179.85 148.74 181H135.6C132.55 181 129.82 179.07 128.83 176.18C128.18 174.25 127.66 171.73 127.66 168.57Z" fill="white" stroke="#293B4A" stroke-miterlimit="10"/>
<path d="M131.09 176.86C131.09 176.86 134.33 176.9 135.18 175.59C135.18 175.59 137.01 178.02 135.38 179.66" stroke="#293B4A" stroke-miterlimit="10"/>
<path d="M113.16 233.54C119.54 235.18 119.78 238.42 119.78 238.42" stroke="#293B4A" stroke-miterlimit="10"/>
<path d="M109.35 234.94C113.9 236.11 114.06 238.41 114.06 238.41" stroke="#293B4A" stroke-miterlimit="10"/>
<path d="M25.79 238.55H43.91" stroke="#293B4A" stroke-miterlimit="10"/>
<path d="M167.61 175.49L194.38 175.1" stroke="#293B4A" stroke-linejoin="round"/>
<path d="M167.61 179.77L194.38 180.15" stroke="#293B4A" stroke-linejoin="round"/>
<path d="M167.61 184.06L194.38 184.82" stroke="#293B4A" stroke-linejoin="round"/>
<path d="M189.97 149.7V165.77L168.32 166.53V152.75L189.97 149.7Z" fill="#F3F5F6"/>
<path d="M216.3 238.82V226.72H237.25V212.67H252.45" stroke="#293B4A" stroke-linejoin="round"/>
<path d="M40.86 238.34L36.11 184.82C36.11 184.82 38.94 178.57 56.86 178.17" stroke="#293B4A" stroke-miterlimit="10"/>
<path d="M43.53 227.38L40.07 188.41" stroke="#293B4A" stroke-miterlimit="10"/>
<path d="M92.43 160.76C97.51 161.79 101.38 166.29 101.48 171.59C101.55 175.41 100.39 178.05 100.39 178.05C99.06 176.15 95.9 173.44 94.44 172.23C93.92 171.8 93.15 171.88 92.75 172.42C91 174.79 88.96 181.34 88.96 181.34C88.96 181.34 72.11 171.86 70.03 166.86L72.2 163.67C72.87 162.69 73.85 161.97 74.99 161.65C76.4 161.25 78.27 160.79 79.2 160.92" stroke="#293B4A" stroke-miterlimit="10"/>
<path d="M98.22 175.49C98.36 179.3 96.96 180.34 95.25 180.23C93.54 180.12 91.61 178.78 90.42 177.08" stroke="#293B4A" stroke-miterlimit="10"/>
<path d="M85.89 139.37C86.4147 139.37 86.84 138.945 86.84 138.42C86.84 137.895 86.4147 137.47 85.89 137.47C85.3653 137.47 84.94 137.895 84.94 138.42C84.94 138.945 85.3653 139.37 85.89 139.37Z" fill="#293B4A"/>
<path d="M95.84 138.8C96.3647 138.8 96.79 138.375 96.79 137.85C96.79 137.325 96.3647 136.9 95.84 136.9C95.3153 136.9 94.89 137.325 94.89 137.85C94.89 138.375 95.3153 138.8 95.84 138.8Z" fill="#293B4A"/>
<path d="M91.64 135.69C95.37 141.32 96.32 146.2 96.32 146.2L92.12 146.95" stroke="#293B4A" stroke-linejoin="round"/>
<path d="M87.68 150.94C90.46 153.72 93.21 151.79 93.21 151.79" stroke="#293B4A" stroke-miterlimit="10"/>
<path d="M95.61 146.68C95.61 150.9 96.58 155.39 96.58 155.39C96.58 155.39 89.09 159.34 81.6 153.35" stroke="#293B4A" stroke-miterlimit="10"/>
<path d="M77.09 128.95C85.95 129.36 91.64 126.66 91.64 126.66" stroke="#293B4A" stroke-miterlimit="10"/>
<path fill-rule="evenodd" clip-rule="evenodd" d="M77.5 125.55C84.1 124.09 91.17 124.11 94.55 124.23C95.43 124.26 96.04 125.11 95.78 125.95C95 128.48 95.36 134.13 95.36 134.13C93.22 130.26 91.65 134.42 91.65 134.42C91.65 134.42 87.48 129.86 82.74 133.06C81.41 133.96 80.42 135.28 79.83 136.77C79.33 138.04 79.01 139.61 79.8 140.76C79.8 140.76 75.65 137.84 76.53 143.37C77.1 146.95 79.32 146.67 79.32 146.67L78.29 151.66C78.29 151.66 70.07 147.15 71.28 137.88C71.99 132.47 73.42 129.32 74.49 127.62C75.17 126.54 76.28 125.81 77.52 125.54L77.5 125.55Z" fill="#293B4A"/>
<path d="M76.97 164.52C76.97 164.52 82.82 162.73 77.91 149.64" stroke="#293B4A" stroke-miterlimit="10"/>
<path d="M91.92 156.67C91.78 159.73 91.94 162.31 93.47 164.38C100.31 168.35 95.3 179.89 75.48 163.29" stroke="#293B4A" stroke-miterlimit="10"/>
<path d="M93.84 224.97L92.73 221.26C95.15 213.35 95.62 184.41 95.69 180.42C95.69 180.29 95.85 180.25 95.91 180.36C106.82 200.36 103.05 224.77 103.05 224.77L100.33 227.96" stroke="#293B4A" stroke-miterlimit="10"/>
<path d="M96.34 225.87L103.55 217.67" stroke="#293B4A" stroke-miterlimit="10" stroke-linecap="round"/>
<path d="M93.42 222.9L103.56 211.39" stroke="#293B4A" stroke-miterlimit="10" stroke-linecap="round"/>
<path d="M93.84 216.14L103.24 205.54" stroke="#293B4A" stroke-miterlimit="10" stroke-linecap="round"/>
<path d="M94.55 209.09L102.55 200.03" stroke="#293B4A" stroke-miterlimit="10" stroke-linecap="round"/>
<path d="M95.01 202.26L101.43 195.05" stroke="#293B4A" stroke-miterlimit="10" stroke-linecap="round"/>
<path d="M95.36 195.66L100.12 190.28" stroke="#293B4A" stroke-miterlimit="10" stroke-linecap="round"/>
<path d="M95.52 189.24L98.49 185.87" stroke="#293B4A" stroke-miterlimit="10" stroke-linecap="round"/>
<path d="M112.72 200.35C121.57 199.09 125.15 193.39 125.15 193.39C119.45 179.88 108.69 166.56 99.67 165.71" stroke="#293B4A" stroke-miterlimit="10"/>
<path d="M70.93 199.65C70.93 199.65 63.72 201.82 49.44 193.46C54.72 176.73 65.55 167.47 70.04 166.85" stroke="#293B4A" stroke-miterlimit="10"/>
<path d="M104.19 230.4H104.22C104.22 230.4 121.22 227.46 124.04 238.82" stroke="#293B4A" stroke-miterlimit="10"/>
<path d="M64.79 216.04C75.45 217.44 87.89 222.32 96.08 226.15C99.95 227.96 102.88 229.54 104.22 230.4" stroke="#293B4A" stroke-miterlimit="10"/>
<path d="M153.54 86.23L157.57 86.75L153.33 91.02L154.44 96.93L151.53 95.46L150.57 94.97L149.08 94.22L143.8 97.1L144.72 91.15L140.35 87.02L146.29 86.07L148.86 80.63L151.61 85.98" fill="#FFE570"/>
<path d="M153.07 84.67L157.1 85.19L152.86 89.46L153.97 95.37L151.06 93.89L150.1 93.41L148.61 92.65L143.33 95.53L144.25 89.59L139.88 85.46L145.82 84.5L148.39 79.07L151.14 84.42" stroke="#293B4A" stroke-linecap="round" stroke-linejoin="round"/>
<path d="M273.94 10.38L278.43 11.92L272.59 15.8L272.49 22.82L269.5 20.45L268.52 19.68L266.98 18.47L260.28 20.53L262.72 13.96L258.68 8.21999L265.69 8.50999L269.9 2.89999L271.79 9.64999" fill="#FFE570"/>
<path d="M273.77 8.49L278.25 10.02L272.42 13.91L272.31 20.92L269.33 18.56L268.34 17.78L266.81 16.57L260.11 18.64L262.54 12.06L258.51 6.33L265.52 6.61L269.72 1L271.62 7.75" stroke="#293B4A" stroke-linecap="round" stroke-linejoin="round"/>
<path d="M431.96 39.36L435.42 40.66L430.78 43.56L430.54 49.02L428.27 47.11L427.52 46.48L426.35 45.5L421.08 46.96L423.13 41.89L420.12 37.33L425.57 37.71L428.98 33.44L430.3 38.74" fill="#FFE570"/>
<path d="M431.87 37.88L435.33 39.18L430.69 42.08L430.45 47.54L428.18 45.63L427.43 45L426.26 44.02L420.99 45.48L423.04 40.41L420.03 35.85L425.48 36.23L428.89 31.95L430.21 37.26" stroke="#293B4A" stroke-linecap="round" stroke-linejoin="round"/>
<path d="M13.36 158.51L17.05 158.35L13.92 162.83L15.84 167.95L13 167.08L12.07 166.8L10.61 166.36L6.33 169.76L6.23 164.29L1.67 161.28L6.84 159.49L8.29 154.22L11.59 158.59" fill="#FFE570"/>
<path d="M12.7 157.18L16.39 157.02L13.26 161.5L15.17 166.62L12.33 165.76L11.4 165.47L9.94 165.03L5.66 168.43L5.56 162.97L1 159.95L6.17 158.17L7.63 152.9L10.92 157.26" stroke="#293B4A" stroke-linecap="round" stroke-linejoin="round"/>
<path d="M443.98 198.69L446.84 200.04L442.68 202.19L442.09 206.82L440.28 205.04L439.69 204.45L438.77 203.53L434.17 204.4L436.28 200.23L434.03 196.13L438.65 196.84L441.86 193.43L442.61 198.05" fill="#FFE570"/>
<path d="M444.01 197.42L446.86 198.77L442.71 200.92L442.11 205.55L440.31 203.77L439.72 203.18L438.79 202.26L434.2 203.13L436.3 198.96L434.05 194.86L438.68 195.57L441.88 192.16L442.63 196.78" stroke="#293B4A" stroke-linecap="round" stroke-linejoin="round"/>
<path d="M50.03 31.54L54.77 31.65L50.37 37.11L52.38 43.83L48.82 42.48L47.65 42.03L45.83 41.34L40.06 45.32L40.4 38.32L34.83 34.06L41.6 32.23L43.92 25.61L47.76 31.48" fill="#FFE570"/>
<path d="M49.3 29.78L54.04 29.89L49.64 35.36L51.65 42.08L48.09 40.72L46.92 40.28L45.09 39.58L39.32 43.57L39.67 36.56L34.1 32.31L40.86 30.47L43.19 23.86L47.03 29.73" stroke="#293B4A" stroke-linecap="round" stroke-linejoin="round"/>
<path d="M290.04 119.95C301.66 119.95 311.08 110.53 311.08 98.91C311.08 87.2899 301.66 77.87 290.04 77.87C278.42 77.87 269 87.2899 269 98.91C269 110.53 278.42 119.95 290.04 119.95Z" fill="#5CC46E"/>
<path d="M276.89 92.99L289.71 105.74L316.89 78.41" stroke="#293B4A" stroke-miterlimit="10"/>
</svg>
