<svg width="33" height="34" viewBox="0 0 33 34" fill="none" xmlns="http://www.w3.org/2000/svg">
<path d="M1.00218 6.19128V25.6738C0.97008 26.091 1.29105 26.7008 2.09345 26.7329H15.2208" stroke="#597EF7" stroke-width="1.2" stroke-linecap="round"/>
<path d="M21.608 18.8693V1.69779C21.6401 1.28054 21.3191 0.670707 20.5167 0.638611H8.60899" stroke="#597EF7" stroke-width="1.2" stroke-linecap="round"/>
<path d="M3.12056 26.765V27.8563C3.10986 28.188 3.35165 28.8384 4.40441 28.7871H15.4135" stroke="#597EF7" stroke-width="1.2" stroke-linecap="round"/>
<path d="M21.7685 2.69315H22.8598C23.1915 2.68244 23.8419 2.92424 23.7906 3.977V16.8476" stroke="#597EF7" stroke-width="1.2" stroke-linecap="round"/>
<path d="M26.262 18.9656H18.2379C16.7312 18.9656 15.5097 20.187 15.5097 21.6938V29.9104C15.5097 31.4172 16.7312 32.6386 18.2379 32.6386H26.262C27.7687 32.6386 28.9902 31.4172 28.9902 29.9104V21.6938C28.9902 20.187 27.7687 18.9656 26.262 18.9656Z" stroke="#597EF7" stroke-width="1.2"/>
<path d="M4.59695 9.62555H18.0453" stroke="#597EF7" stroke-width="1.2" stroke-linecap="round"/>
<path d="M4.59695 12.5142H18.0453" stroke="#597EF7" stroke-width="1.2" stroke-linecap="round"/>
<path d="M4.59695 15.3387H13.2951" stroke="#597EF7" stroke-width="1.2" stroke-linecap="round"/>
<path d="M4.59695 18.2274H10.599" stroke="#597EF7" stroke-width="1.2" stroke-linecap="round"/>
<path d="M4.59695 21.0519H10.599" stroke="#597EF7" stroke-width="1.2" stroke-linecap="round"/>
<path d="M15.4776 15.3387H18.0774" stroke="#597EF7" stroke-width="1.2" stroke-linecap="round"/>
<path d="M6.233 0.707538L1.05881 5.97043C0.978652 6.05197 1.03704 6.18972 1.15137 6.18882L4.91794 6.15916C6.64205 5.96759 6.26997 4.82322 6.39239 4.14774C6.3937 4.14055 6.39444 4.13342 6.39456 4.12611L6.45292 0.799797C6.45496 0.683817 6.31433 0.624821 6.233 0.707538Z" stroke="#597EF7" stroke-width="1.2" stroke-linecap="round"/>
<path d="M17.596 3.33472H15.0925C14.7911 3.33472 14.5468 3.57901 14.5468 3.88035V5.87033C14.5468 6.17167 14.7911 6.41596 15.0925 6.41596H17.596C17.8973 6.41596 18.1416 6.17167 18.1416 5.87033V3.88035C18.1416 3.57901 17.8973 3.33472 17.596 3.33472Z" stroke="#597EF7" stroke-width="1.2"/>
<path d="M20.5167 26.5404H19.4538C19.4352 26.5404 19.4161 26.5361 19.3992 26.528C18.3279 26.0108 18.7328 25.0177 19.0724 24.5825L21.4154 21.7581C22.0242 21.0985 22.7667 21.3871 23.0734 21.6211C23.0809 21.6269 23.0875 21.6334 23.0934 21.6407L25.4917 24.5825C26.4584 25.8801 25.5514 26.5285 24.9623 26.6963C24.9514 26.6995 24.9403 26.7009 24.9288 26.7009H23.951C23.8801 26.7009 23.8227 26.7583 23.8227 26.8293V29.5575C23.8227 30.0967 23.3305 30.2529 23.0844 30.2636H21.4154C20.8249 30.2893 20.6558 29.6966 20.6451 29.397V26.6688C20.6451 26.5979 20.5877 26.5404 20.5167 26.5404Z" stroke="#597EF7" stroke-width="1.2" stroke-linecap="round"/>
</svg>
