<svg width="14" height="14" viewBox="0 0 14 14" fill="none" xmlns="http://www.w3.org/2000/svg">
<g id="Icons / Phone / Phone">
<path id="Color" fill-rule="evenodd" clip-rule="evenodd" d="M3.85008 2.33335C3.01358 2.33335 2.33341 3.01352 2.33341 3.85002C2.33341 8.15969 5.83983 11.6667 10.1501 11.6667C10.986 11.6667 11.6667 10.9865 11.6667 10.15C11.6667 10.0853 11.6627 10.0217 11.6545 9.95869L8.9595 9.34035C8.90583 9.44302 8.84692 9.55444 8.79325 9.65827C8.52725 10.1658 8.33475 10.5344 7.84358 10.3367C5.91508 9.66002 4.34066 8.08502 3.65525 6.13319C3.447 5.67527 3.84366 5.4676 4.3465 5.2051C4.44858 5.15144 4.55883 5.09369 4.65975 5.04119L4.04141 2.3456C3.97666 2.33744 3.91366 2.33335 3.85008 2.33335ZM10.1501 12.8334C5.19641 12.8334 1.16675 8.80369 1.16675 3.85002C1.16675 2.3701 2.37016 1.16669 3.85008 1.16669C4.00175 1.16669 4.15166 1.17952 4.29691 1.2046C4.43866 1.22735 4.581 1.26352 4.71983 1.31135C4.90941 1.37727 5.05233 1.53652 5.09725 1.73252L5.89583 5.21152C5.94016 5.40285 5.88475 5.60352 5.74825 5.74585C5.66891 5.82869 5.66716 5.83044 4.94383 6.20902C5.5295 7.47719 6.54741 8.4916 7.78991 9.05744C8.16908 8.33352 8.17141 8.33119 8.25425 8.25185C8.39658 8.11535 8.59841 8.06227 8.78858 8.10427L12.2682 8.90285C12.4636 8.94777 12.6228 9.0901 12.6882 9.27969C12.736 9.41735 12.7722 9.55969 12.7961 9.7061C12.8206 9.85019 12.8334 9.99952 12.8334 10.15C12.8334 11.6299 11.6294 12.8334 10.1501 12.8334Z" fill="#293B4A"/>
</g>
</svg>
