<svg width="16" height="16" viewBox="0 0 16 16" fill="none" xmlns="http://www.w3.org/2000/svg">
<g id="Icons / Email">
<path id="Color" fill-rule="evenodd" clip-rule="evenodd" d="M12.6667 12H3.33337C2.96604 12 2.66671 11.7014 2.66671 11.3334V4.83335L7.60004 8.53335C7.71871 8.62269 7.85937 8.66669 8.00004 8.66669C8.14071 8.66669 8.28137 8.62269 8.40004 8.53335L13.3334 4.83335V11.3334C13.3334 11.7014 13.034 12 12.6667 12ZM12.222 4.00002L8.00004 7.16669L3.77804 4.00002H12.222ZM12.6667 2.66669H3.33337C2.23071 2.66669 1.33337 3.56402 1.33337 4.66669V11.3334C1.33337 12.436 2.23071 13.3334 3.33337 13.3334H12.6667C13.7694 13.3334 14.6667 12.436 14.6667 11.3334V4.66669C14.6667 3.56402 13.7694 2.66669 12.6667 2.66669Z" fill="#293B4A"/>
</g>
</svg>
