<svg width="34" height="35" viewBox="0 0 34 35" fill="none" xmlns="http://www.w3.org/2000/svg">
<path d="M25 10.5566H9V33.5H25V10.5566Z" stroke="#D48806" stroke-width="1.2"/>
<path d="M9.00001 21.1226H3.26416V33.5H9.00001V21.1226Z" stroke="#D48806" stroke-width="1.2"/>
<path d="M30.7358 21.1226H25V33.5H30.7358V21.1226Z" stroke="#D48806" stroke-width="1.2"/>
<path d="M19.8679 24.7453H14.1321V33.5H19.8679V24.7453Z" stroke="#D48806" stroke-width="1.2"/>
<path d="M19.8679 6.63208H14.1321V10.5566H19.8679V6.63208Z" stroke="#D48806" stroke-width="1.2"/>
<path d="M20.9145 1.5H16.99V3.91509H20.9145V1.5Z" stroke="#D48806" stroke-width="1.2"/>
<path d="M1 33.5H33" stroke="#D48806" stroke-width="1.2" stroke-linecap="round"/>
<path d="M21.87 14.3855L17.2721 12.8406C17.1934 12.8141 17.1084 12.8141 17.0298 12.8406L12.4318 14.3855C12.3555 14.4111 12.2892 14.4603 12.2421 14.5261C12.1951 14.5918 12.1698 14.6709 12.1698 14.7519V18.6142C12.1698 18.7166 12.2102 18.8149 12.282 18.8873C12.3539 18.9597 12.4514 19.0004 12.553 19.0004C12.6546 19.0004 12.7521 18.9597 12.8239 18.8873C12.8958 18.8149 12.9361 18.7166 12.9361 18.6142V15.2878L14.545 15.828C14.1175 16.5241 13.9816 17.3627 14.167 18.1598C14.3525 18.9568 14.8441 19.647 15.534 20.079C14.6719 20.4198 13.9266 21.0363 13.3816 21.8793C13.3532 21.9218 13.3335 21.9695 13.3236 22.0197C13.3138 22.0699 13.3139 22.1216 13.324 22.1717C13.3341 22.2219 13.354 22.2695 13.3825 22.3119C13.411 22.3542 13.4476 22.3904 13.4902 22.4184C13.5327 22.4463 13.5803 22.4655 13.6302 22.4747C13.6802 22.484 13.7315 22.4832 13.7811 22.4723C13.8307 22.4613 13.8777 22.4406 13.9193 22.4113C13.9609 22.3819 13.9962 22.3445 14.0234 22.3012C14.7451 21.185 15.8851 20.5454 17.1509 20.5454C18.4168 20.5454 19.5567 21.185 20.2785 22.3012C20.3347 22.3854 20.4215 22.444 20.5201 22.4642C20.6188 22.4843 20.7214 22.4646 20.8057 22.4091C20.89 22.3537 20.9493 22.267 20.9707 22.1679C20.9922 22.0687 20.9741 21.9651 20.9203 21.8793C20.3752 21.0363 19.6271 20.4198 18.7679 20.079C19.4571 19.647 19.9482 18.9572 20.1337 18.1608C20.3191 17.3644 20.1836 16.5263 19.7569 15.8305L21.87 15.1208C21.9463 15.0951 22.0127 15.0459 22.0597 14.9802C22.1068 14.9144 22.1321 14.8354 22.1321 14.7543C22.1321 14.6732 22.1068 14.5942 22.0597 14.5285C22.0127 14.4627 21.9463 14.4135 21.87 14.3879V14.3855ZM19.4499 17.4555C19.45 17.8219 19.3639 18.183 19.1987 18.5094C19.0336 18.8357 18.794 19.1179 18.4996 19.3329C18.2053 19.5478 17.8646 19.6893 17.5055 19.7458C17.1464 19.8023 16.7791 19.7722 16.4338 19.6579C16.0884 19.5436 15.7749 19.3484 15.5189 19.0884C15.263 18.8283 15.0718 18.5107 14.9611 18.1618C14.8504 17.8128 14.8234 17.4424 14.8823 17.0808C14.9412 16.7193 15.0842 16.377 15.2998 16.082L17.0298 16.6613C17.1084 16.6878 17.1934 16.6878 17.2721 16.6613L19.0021 16.082C19.2932 16.4798 19.4501 16.9612 19.4499 17.4555ZM17.1509 15.8898L13.7647 14.7519L17.1509 13.614L20.5371 14.7519L17.1509 15.8898Z" fill="#D48806"/>
<path d="M17.3019 3.76416H16.3962V7.08491H17.3019V3.76416Z" fill="#D48806"/>
</svg>
