<svg width="40" height="40" viewBox="0 0 40 40" fill="none" xmlns="http://www.w3.org/2000/svg">
<g id="Social/notifications">
<path id="Icon" fill-rule="evenodd" clip-rule="evenodd" d="M19.4487 32.6667C20.9153 32.6667 22.1153 31.4667 22.1153 30H16.782C16.782 31.4667 17.9687 32.6667 19.4487 32.6667ZM27.4487 24.6667V18C27.4487 13.9067 25.262 10.48 21.4487 9.57335V8.66669C21.4487 7.56002 20.5553 6.66669 19.4487 6.66669C18.342 6.66669 17.4487 7.56002 17.4487 8.66669V9.57335C13.622 10.48 11.4487 13.8934 11.4487 18V24.6667L9.72868 26.3867C8.88868 27.2267 9.47534 28.6667 10.662 28.6667H28.222C29.4087 28.6667 30.0087 27.2267 29.1687 26.3867L27.4487 24.6667Z" fill="#B0B5B8"/>
</g>
</svg>
