<svg width="30" height="30" viewBox="0 0 30 30" fill="none" xmlns="http://www.w3.org/2000/svg">
<g id="Social/notifications_active">
<path id="Icon" fill-rule="evenodd" clip-rule="evenodd" d="M20.8711 18.5V13.5C20.8711 10.43 19.2311 7.86 16.3711 7.18V6.5C16.3711 5.67 15.6911 5 14.8611 5C14.0311 5 13.3711 5.67 13.3711 6.5V7.18C10.5011 7.86 8.87107 10.42 8.87107 13.5V18.5L7.57107 19.79C6.94107 20.42 7.38107 21.5 8.27107 21.5H21.4411C22.3311 21.5 22.7811 20.42 22.1511 19.79L20.8711 18.5ZM14.8611 24.5C15.9611 24.5 16.8611 23.6 16.8611 22.5H12.8611C12.8611 23.6 13.7511 24.5 14.8611 24.5ZM9.64107 7.23C10.0611 6.85 10.0711 6.2 9.67107 5.8C9.29107 5.42 8.67107 5.41 8.28107 5.78C6.57107 7.34 5.39107 9.46 5.01107 11.84C4.92107 12.45 5.39107 13 6.01107 13C6.49107 13 6.91107 12.65 6.99107 12.17C7.29107 10.23 8.25107 8.5 9.64107 7.23ZM21.4711 5.78C21.0711 5.41 20.4511 5.42 20.0711 5.8C19.6711 6.2 19.6911 6.84 20.1011 7.22C21.4811 8.49 22.4511 10.22 22.7511 12.16C22.8211 12.64 23.2411 12.99 23.7311 12.99C24.3411 12.99 24.8211 12.44 24.7211 11.83C24.3411 9.46 23.1711 7.35 21.4711 5.78Z" fill="#56646F"/>
</g>
</svg>
