<svg width="34" height="34" viewBox="0 0 34 34" fill="none" xmlns="http://www.w3.org/2000/svg">
<g clip-path="url(#clip0_51_50)">
<path d="M7.89178 27.4832L15.7855 21.3354C16.1903 21.0008 17.2428 20.5324 18.2144 21.3354L32.8159 31.8745" stroke="#69509E" stroke-width="1.2" stroke-linecap="round"/>
<path d="M2 32.2621L6.37192 29" stroke="#69509E" stroke-width="1.2" stroke-linecap="round"/>
<path d="M32.537 17L21 23.2733" stroke="#69509E" stroke-width="1.2" stroke-linecap="round"/>
<path d="M2 17L13.4156 23.0224" stroke="#69509E" stroke-width="1.2" stroke-linecap="round"/>
<path d="M5 7L5 18" stroke="#69509E" stroke-width="1.2" stroke-linecap="round"/>
<path d="M4.5 14L1.20935 16.6444C1.07768 16.7467 1 16.9087 1 17.081V31.9571C1 32.2571 1.23108 32.5 1.51613 32.5H32.4839C32.769 32.5 33 32.2571 33 31.9571V17.068C33 16.9031 32.9288 16.7472 32.8062 16.6442L29.5 14.5" stroke="#69509E" stroke-width="1.2" stroke-linecap="round"/>
<path d="M13.3568 14.6191H24.0437" stroke="#69509E" stroke-width="1.2" stroke-linecap="round"/>
<path d="M12.8708 11.8589H21.1289" stroke="#69509E" stroke-width="1.2" stroke-linecap="round"/>
<path d="M9.95636 14.6191H11.1708" stroke="#69509E" stroke-width="1.2" stroke-linecap="round"/>
<path d="M9.95636 16.6267H11.1708" stroke="#69509E" stroke-width="1.2" stroke-linecap="round"/>
<path d="M13.3568 16.6267H24.0437" stroke="#69509E" stroke-width="1.2" stroke-linecap="round"/>
<path d="M10.98 6.05994C10.63 6.05994 10.3233 5.98327 10.06 5.82994C9.79998 5.67661 9.59497 5.46494 9.44497 5.19494C9.2983 4.92161 9.22498 4.60661 9.22498 4.24994C9.22498 3.89327 9.2983 3.57994 9.44497 3.30994C9.59497 3.03661 9.79998 2.82327 10.06 2.66994C10.3233 2.51661 10.63 2.43994 10.98 2.43994C11.3267 2.43994 11.6317 2.51661 11.895 2.66994C12.1583 2.82327 12.3633 3.03661 12.51 3.30994C12.6567 3.57994 12.73 3.89327 12.73 4.24994C12.73 4.60661 12.6567 4.92161 12.51 5.19494C12.3633 5.46494 12.1583 5.67661 11.895 5.82994C11.6317 5.98327 11.3267 6.05994 10.98 6.05994ZM10.98 5.48494C11.3133 5.48494 11.5783 5.37494 11.775 5.15494C11.975 4.93494 12.075 4.63327 12.075 4.24994C12.075 3.86661 11.975 3.56494 11.775 3.34494C11.5783 3.12494 11.3133 3.01494 10.98 3.01494C10.6467 3.01494 10.38 3.12494 10.18 3.34494C9.97998 3.56494 9.87998 3.86661 9.87998 4.24994C9.87998 4.63327 9.97998 4.93494 10.18 5.15494C10.38 5.37494 10.6467 5.48494 10.98 5.48494ZM13.2951 5.99994V2.49994H15.5551V3.01494H13.9351V3.99494H15.2451V4.49994H13.9351V5.99994H13.2951ZM16.049 5.99994V2.49994H18.309V3.01494H16.689V3.99494H17.999V4.49994H16.689V5.99994H16.049ZM18.8029 5.99994V2.49994H21.0879V3.01494H19.4429V3.97494H20.9379V4.47494H19.4429V5.48494H21.0879V5.99994H18.8029ZM21.6935 5.99994V2.49994H22.9785C23.2585 2.49994 23.4885 2.54827 23.6685 2.64494C23.8518 2.73827 23.9885 2.86661 24.0785 3.02994C24.1685 3.18994 24.2135 3.36827 24.2135 3.56494C24.2135 3.77827 24.1568 3.97327 24.0435 4.14994C23.9335 4.32661 23.7602 4.45494 23.5235 4.53494L24.2485 5.99994H23.5135L22.8635 4.61994H22.3335V5.99994H21.6935ZM22.3335 4.14994H22.9385C23.1518 4.14994 23.3085 4.09827 23.4085 3.99494C23.5085 3.89161 23.5585 3.75494 23.5585 3.58494C23.5585 3.41827 23.5085 3.28494 23.4085 3.18494C23.3118 3.08494 23.1535 3.03494 22.9335 3.03494H22.3335V4.14994Z" fill="#69509E"/>
<path d="M29.2353 6.5V18.5" stroke="#69509E" stroke-width="1.2" stroke-linecap="round"/>
<path d="M5.38816 1.09998H28.8282C29.0491 1.09998 29.2282 1.27907 29.2282 1.49998V4.74998V6.99998C29.2282 7.22089 29.0491 7.39998 28.8282 7.39998H5.38816C5.16725 7.39998 4.98816 7.22089 4.98816 6.99998V1.49998C4.98816 1.27907 5.16725 1.09998 5.38816 1.09998Z" stroke="#69509E" stroke-width="1.2"/>
</g>
<defs>
<clipPath id="clip0_51_50">
<rect width="34" height="34" fill="white"/>
</clipPath>
</defs>
</svg>
