<svg width="28" height="28" viewBox="0 0 28 28" fill="none" xmlns="http://www.w3.org/2000/svg">
<g id="Icon">
<path id="Icon_2" fill-rule="evenodd" clip-rule="evenodd" d="M19.5999 14.9333H14.9332V19.6C14.9332 20.1133 14.5132 20.5333 13.9999 20.5333C13.4866 20.5333 13.0666 20.1133 13.0666 19.6V14.9333H8.39989C7.88655 14.9333 7.46655 14.5133 7.46655 14C7.46655 13.4867 7.88655 13.0667 8.39989 13.0667H13.0666V8.4C13.0666 7.88667 13.4866 7.46667 13.9999 7.46667C14.5132 7.46667 14.9332 7.88667 14.9332 8.4V13.0667H19.5999C20.1132 13.0667 20.5332 13.4867 20.5332 14C20.5332 14.5133 20.1132 14.9333 19.5999 14.9333Z" fill="white"/>
</g>
</svg>
