<svg width="30" height="30" viewBox="0 0 30 30" fill="none" xmlns="http://www.w3.org/2000/svg">
<g id="Communication/rss_feed">
<path id="Icon" fill-rule="evenodd" clip-rule="evenodd" d="M9.18 18.1281C7.97602 18.1281 7 19.1041 7 20.3081C7 21.5121 7.97602 22.4881 9.18 22.4881C10.384 22.4881 11.36 21.5121 11.36 20.3081C11.36 19.1041 10.384 18.1281 9.18 18.1281ZM8.59 12.7181C7.75 12.5781 7 13.2681 7 14.1181C7 14.8281 7.53 15.3981 8.23 15.5181C11.15 16.0281 13.45 18.3381 13.97 21.2581C14.09 21.9581 14.66 22.4881 15.37 22.4881C16.22 22.4881 16.91 21.7381 16.78 20.8981C16.1 16.6981 12.79 13.3881 8.59 12.7181ZM8.56 7.00812C7.73 6.91812 7 7.58812 7 8.41812C7 9.14812 7.55 9.74812 8.27 9.81812C14.28 10.4181 19.06 15.1981 19.66 21.2081C19.73 21.9381 20.33 22.4881 21.06 22.4881C21.9 22.4881 22.56 21.7581 22.48 20.9281C21.75 13.5881 15.91 7.73812 8.56 7.00812Z" fill="#56646F"/>
</g>
</svg>
