<svg width="40" height="40" viewBox="0 0 40 40" fill="none" xmlns="http://www.w3.org/2000/svg">
<g id="Action/settings_power">
<path id="Icon" fill-rule="evenodd" clip-rule="evenodd" d="M13.3396 34.6667H16.0063V32H13.3396V34.6667ZM18.673 34.6667H21.3396V32H18.673V34.6667ZM20.0063 5.33337C19.273 5.33337 18.673 5.93337 18.673 6.66671V17.3334C18.673 18.0667 19.273 18.6667 20.0063 18.6667C20.7396 18.6667 21.3396 18.0667 21.3396 17.3334V6.66671C21.3396 5.93337 20.7396 5.33337 20.0063 5.33337ZM25.2596 9.41337L25.233 9.44004C24.6863 9.98671 24.753 10.88 25.3396 11.3867C27.353 13.1734 28.4463 15.96 27.8463 18.9867C27.233 22.0267 24.793 24.5067 21.7663 25.1467C16.5796 26.2534 12.0063 22.32 12.0063 17.3334C12.0063 14.96 13.0463 12.84 14.6863 11.3734C15.2596 10.8534 15.313 9.98671 14.7796 9.44004L14.753 9.41337C14.2596 8.92004 13.473 8.89337 12.9396 9.36004C10.2596 11.72 8.77964 15.4 9.5263 19.3867C10.313 23.5867 13.673 26.9867 17.873 27.8C24.6996 29.12 30.673 23.9334 30.673 17.3334C30.673 14.16 29.273 11.3067 27.0596 9.34671C26.5396 8.89337 25.753 8.92004 25.2596 9.41337ZM24.0063 34.6667H26.673V32H24.0063V34.6667Z" fill="#B0B5B8"/>
</g>
</svg>
