<svg width="34" height="32" viewBox="0 0 34 32" fill="none" xmlns="http://www.w3.org/2000/svg">
<path d="M9.07725 8.05359L9.76781 9.25191C10.0754 9.78559 9.83195 10.4678 9.25603 10.6862L8.20945 11.0832L6.57908 11.7016C6.25875 11.8231 5.91463 11.7485 5.76436 11.4406C5.46064 10.8184 5.11346 9.73535 5.02917 9.03696C5.02917 8.68176 6.65926 8.03799 7.91781 7.60877C8.36043 7.45781 8.84375 7.64839 9.07725 8.05359Z" stroke="#179C43" stroke-width="1.2"/>
<path d="M29.8795 4.698H31.0135V8.54392M31.0135 8.54392L29.6823 9.77658V11.0586H32.2955V9.77658L31.0135 8.54392Z" stroke="#179C43" stroke-width="1.2"/>
<path d="M11.1924 6.42375L1.5283 10.7627C0.825442 11.0783 0.972471 12.0447 1.13384 12.4885C1.64099 13.4746 2.71165 13.3595 3.00749 13.2281L13.2633 8.83977C14.3621 8.00156 13.9864 7.17978 13.855 6.67028C13.3422 5.76304 11.8663 6.12791 11.1924 6.42375Z" stroke="#179C43" stroke-width="1.2"/>
<path d="M18.1447 6.62091V15.003C18.1611 16.1535 18.9631 18.4841 22.0399 18.6024C23.4369 18.7175 26.3098 18.1587 26.6254 15.003V6.62091" stroke="#179C43" stroke-width="1.2"/>
<path d="M18.194 9.38213C19.5088 9.6944 22.2076 10.4471 22.4837 10.9599C23.5191 10.434 25.7872 9.38213 26.5761 9.38213M14.0522 4.84592L22.1385 1L30.2248 4.84592L22.4837 8.64253L14.0522 4.84592Z" stroke="#179C43" stroke-width="1.2"/>
<path d="M16.5176 17.9615L21.9413 25.0123L26.5761 19.2435" stroke="#179C43" stroke-width="1.2"/>
<path d="M14.4959 31.0277V22.2512L8.7763 20.131C7.93809 19.7858 6.65612 19.0462 6.26166 17.4191L5.37415 12.1433" stroke="#179C43" stroke-width="1.2"/>
<path d="M33 30.9785H8.88904" stroke="#179C43" stroke-width="1.2" stroke-linecap="round"/>
<path d="M30.1754 31.077V21.6595C30.159 20.9199 29.781 19.4209 28.0059 19.3421L16.3695 17.8136L11.0444 15.7427V9.57935" stroke="#179C43" stroke-width="1.2"/>
</svg>
