<svg width="40" height="40" viewBox="0 0 40 40" fill="none" xmlns="http://www.w3.org/2000/svg">
<g id="Action/verified_user">
<path id="Icon" fill-rule="evenodd" clip-rule="evenodd" d="M18.92 5.56331L9.58667 9.70998C8.62667 10.1366 8 11.0966 8 12.15V18.4166C8 25.8166 13.12 32.7366 20 34.4166C26.88 32.7366 32 25.8166 32 18.4166V12.15C32 11.0966 31.3733 10.1366 30.4133 9.70998L21.08 5.56331C20.4 5.25665 19.6 5.25665 18.92 5.56331ZM16.3867 25.47L12.9333 22.0166C12.6837 21.7675 12.5434 21.4293 12.5434 21.0766C12.5434 20.724 12.6837 20.3858 12.9333 20.1366C13.4533 19.6166 14.2933 19.6166 14.8133 20.1366L17.3333 22.6433L25.1733 14.8033C25.6933 14.2833 26.5333 14.2833 27.0533 14.8033C27.5733 15.3233 27.5733 16.1633 27.0533 16.6833L18.2667 25.47C17.76 25.99 16.9067 25.99 16.3867 25.47Z" fill="#B0B5B8"/>
</g>
</svg>
