<svg width="34" height="35" viewBox="0 0 34 35" fill="none" xmlns="http://www.w3.org/2000/svg">
<path d="M29.1735 33.5001H4.82661C2.71324 33.5001 1 31.7869 1 29.6734V5.32664C1 3.2131 2.71324 1.49994 4.82661 1.49994H29.1735C31.2868 1.49994 33 3.2131 33 5.32664V29.6734C33 31.7869 31.2868 33.5001 29.1735 33.5001Z" stroke="#148A3B" stroke-width="1.2" stroke-miterlimit="10" stroke-linecap="round" stroke-linejoin="round"/>
<path d="M1 17.4999H33" stroke="#148A3B" stroke-width="1.2" stroke-miterlimit="10" stroke-linecap="round" stroke-linejoin="round"/>
<path d="M10.6478 12.1826H10.5753L10.5528 12.1136L8.86947 6.95609L8.82671 6.82507H8.96454H9.68371H9.75697L9.77906 6.89491L10.5824 9.43523C10.5824 9.43528 10.5824 9.43532 10.5825 9.43536C10.7614 9.99663 10.9212 10.5153 11.049 11.0142C11.1871 10.5139 11.3631 9.98352 11.548 9.44093L11.548 9.4408L12.4203 6.89268L12.4435 6.82507H12.5149H13.2267H13.3687L13.3209 6.95874L12.3988 9.53749L11.4767 12.1163L11.453 12.1826H11.3825H10.6478Z" fill="#148A3B" stroke="#148A3B" stroke-width="0.2"/>
<path d="M15.0257 6.82507H15.1257V6.92507V12.0826V12.1826H15.0257H14.36H14.26V12.0826V6.92507V6.82507H14.36H15.0257Z" fill="#148A3B" stroke="#148A3B" stroke-width="0.2"/>
<path d="M16.5756 11.2425L16.613 11.1181L16.7237 11.1862C17.0082 11.3613 17.4263 11.508 17.865 11.508C18.1887 11.508 18.4334 11.4226 18.5955 11.2866C18.7558 11.152 18.8438 10.9608 18.8438 10.728C18.8438 10.5094 18.7827 10.3459 18.6469 10.2043C18.5066 10.058 18.2808 9.92873 17.9373 9.79667C17.5103 9.64499 17.1544 9.45511 16.9043 9.20304C16.651 8.94776 16.5098 8.632 16.5098 8.24133C16.5098 7.8101 16.6892 7.43229 17.003 7.16375C17.3159 6.896 17.7573 6.74084 18.2781 6.74084C18.8211 6.74084 19.2211 6.86655 19.4676 7.00652L19.5393 7.04729L19.5129 7.1255L19.3293 7.66868L19.2912 7.78142L19.1867 7.72447C19.0274 7.63765 18.6998 7.49181 18.2552 7.49181C17.9238 7.49181 17.7075 7.5904 17.5747 7.71828C17.441 7.84703 17.3833 8.01343 17.3833 8.16469C17.3833 8.37893 17.4509 8.53171 17.5968 8.66603C17.7493 8.80631 17.9901 8.92897 18.3446 9.06618C18.7868 9.23678 19.1326 9.43309 19.3679 9.6919C19.6064 9.95422 19.7249 10.2736 19.7249 10.6745C19.7249 11.0978 19.5677 11.4968 19.2455 11.7892C18.9236 12.0813 18.4461 12.259 17.8189 12.259C17.3085 12.259 16.744 12.1108 16.4474 11.9134L16.3857 11.8723L16.4071 11.8013L16.5756 11.2425Z" fill="#148A3B" stroke="#148A3B" stroke-width="0.2"/>
<path d="M22.2212 9.83995H23.4956L23.0356 8.48772C22.9634 8.27595 22.9061 8.07612 22.8548 7.88381C22.8022 8.08023 22.7453 8.27897 22.6821 8.47793L22.6822 8.47793L22.6816 8.47973L22.2212 9.83995ZM21.5036 12.1139L21.481 12.1826H21.4087H20.7198H20.5802L20.6251 12.0504L22.3774 6.8929L22.4004 6.82507H22.4721H23.2755H23.347L23.3701 6.89277L25.13 12.0503L25.1752 12.1826H25.0354H24.324H24.2523L24.2293 12.1147L23.7013 10.5604H22.0164L21.5036 12.1139Z" fill="#148A3B" stroke="#148A3B" stroke-width="0.2"/>
<path d="M4.97009 22.4741C4.97009 21.5231 5.74105 20.7521 6.69206 20.7521C7.64308 20.7521 8.41404 21.5231 8.41404 22.4741C8.41404 23.425 7.64308 24.196 6.69206 24.196C5.74105 24.196 4.97009 23.425 4.97009 22.4741Z" stroke="#148A3B" stroke-width="1.2" stroke-miterlimit="10" stroke-linecap="round" stroke-linejoin="round"/>
<path d="M4.06128 28.0225V27.4009C4.06128 26.344 4.9179 25.4875 5.97459 25.4875H7.40958C8.46626 25.4875 9.32288 26.344 9.32288 27.4009V28.0225" stroke="#148A3B" stroke-width="1.2" stroke-miterlimit="10" stroke-linecap="round" stroke-linejoin="round"/>
<path d="M11.4594 21.0633H18.8574" stroke="#148A3B" stroke-width="1.2" stroke-miterlimit="10" stroke-linecap="round" stroke-linejoin="round"/>
<path d="M16.4501 24.1248H18.8574" stroke="#148A3B" stroke-width="1.2" stroke-miterlimit="10" stroke-linecap="round" stroke-linejoin="round"/>
<path d="M11.4594 24.1248H14.2495" stroke="#148A3B" stroke-width="1.2" stroke-miterlimit="10" stroke-linecap="round" stroke-linejoin="round"/>
<path d="M11.4594 27.1863H18.8574" stroke="#148A3B" stroke-width="1.2" stroke-miterlimit="10" stroke-linecap="round" stroke-linejoin="round"/>
<path d="M11.4594 30.2479H18.8574" stroke="#148A3B" stroke-width="1.2" stroke-miterlimit="10" stroke-linecap="round" stroke-linejoin="round"/>
<path d="M4.06128 30.2479H9.32282" stroke="#148A3B" stroke-width="1.2" stroke-miterlimit="10" stroke-linecap="round" stroke-linejoin="round"/>
<path d="M21.4921 25.5C21.4921 23.0496 23.4784 21.0633 25.9287 21.0633C28.3791 21.0633 30.3656 23.0496 30.3656 25.5C30.3656 27.9504 28.3791 29.9369 25.9287 29.9369C23.4784 29.9369 21.4921 27.9504 21.4921 25.5Z" stroke="#148A3B" stroke-width="1.2" stroke-miterlimit="10" stroke-linecap="round" stroke-linejoin="round"/>
<path d="M28.1786 24.1438L25.4659 26.8564L24.1095 25.5" stroke="#148A3B" stroke-width="1.2" stroke-miterlimit="10" stroke-linecap="round" stroke-linejoin="round"/>
</svg>
